<svg width="36" height="36" viewBox="0 0 36 36" fill="none" xmlns="http://www.w3.org/2000/svg">
<g clip-path="url(#clip0_1_2)">
<rect width="36" height="36" fill="white"/>
<rect width="36" height="36" rx="5" fill="white"/>
<path d="M15.6 21.1111L21.828 17.7778L15.6 14.4444V21.1111ZM29.472 12.4111C29.628 12.9333 29.736 13.6333 29.808 14.5222C29.892 15.4111 29.928 16.1778 29.928 16.8444L30 17.7778C30 20.2111 29.808 22 29.472 23.1444C29.172 24.1444 28.476 24.7889 27.396 25.0667C26.832 25.2111 25.8 25.3111 24.216 25.3778C22.656 25.4556 21.228 25.4889 19.908 25.4889L18 25.5556C12.972 25.5556 9.84 25.3778 8.604 25.0667C7.524 24.7889 6.828 24.1444 6.528 23.1444C6.372 22.6222 6.264 21.9222 6.192 21.0333C6.108 20.1444 6.072 19.3778 6.072 18.7111L6 17.7778C6 15.3444 6.192 13.5556 6.528 12.4111C6.828 11.4111 7.524 10.7667 8.604 10.4889C9.168 10.3444 10.2 10.2444 11.784 10.1778C13.344 10.1 14.772 10.0667 16.092 10.0667L18 10C23.028 10 26.16 10.1778 27.396 10.4889C28.476 10.7667 29.172 11.4111 29.472 12.4111Z" fill="#253385"/>
</g>
<defs>
<clipPath id="clip0_1_2">
<rect width="36" height="36" fill="white"/>
</clipPath>
</defs>
</svg>
