<?xml version="1.0" encoding="UTF-8"?> <!-- Generator: Adobe Illustrator 21.0.0, SVG Export Plug-In . SVG Version: 6.00 Build 0) --> <svg xmlns="http://www.w3.org/2000/svg" xmlns:xlink="http://www.w3.org/1999/xlink" version="1.1" id="Calque_1" x="0px" y="0px" viewBox="0 0 405 95" xml:space="preserve"> <g> <defs> <rect id="SVGID_1_" x="-70" y="-69.4" width="545.4" height="234.4"></rect> </defs> <clipPath id="SVGID_2_"> <use xlink:href="#SVGID_1_" overflow="visible"></use> </clipPath> <path clip-path="url(#SVGID_2_)" fill="#253080" d="M137.5,24.8l8.5-9.5c-5-4.6-12-7.1-19.8-7.1c-15.6,0-27.8,12-27.8,27.2 c0,15.3,12.3,27.2,28.1,27.2c15.7,0,27-11.4,27-27.1c0-1.3-0.1-2.9-0.3-4.7h-28.7v10.9h15.9c-1.9,5.8-6.9,9.3-13.8,9.3 c-8.7,0-15.3-6.7-15.3-15.6c0-8.8,6.5-15.5,14.9-15.5C130.4,20,134.5,21.1,137.5,24.8 M182.9,45.2l20.6-35.8h-14.3l-12.7,22.9 L163.7,9.4h-14l20.1,35.9v16.2h13.1V45.2z M240.8,27.5c0,4.4-3,7.3-8,7.3h-11.4V20.4h11.4C237.7,20.4,240.8,23.3,240.8,27.5 M253.4,27.4c0-10.7-7.4-18-19.1-18h-25.7v52.1h12.8V45.6h12.3C245.7,45.6,253.4,38.4,253.4,27.4 M282.1,41h-13.3l6.6-17.1 L282.1,41z M290,61.5h13.7L281.9,9.4h-13.1L247,61.5h13.8l3.7-9.5h21.9L290,61.5z M319.5,23.9c0-3,2.7-5.3,7-5.3 c4.1,0,8.2,2.4,9.1,7.3l12.6-2.6c-1.9-9.5-10.2-15.1-21.5-15.1c-12.2,0-20.6,6.3-20.6,16.4c0,9.5,6.5,13.4,14,15.1l10.9,2.3 c3.7,0.8,4.8,2.3,4.8,4.6c0,3.2-2.9,5.4-7.7,5.4c-5.2,0-8.9-2.3-10.3-7.7l-13.2,2.6c1.4,10.2,11,15.8,22.8,15.8 c11.6,0,21.5-5.8,21.5-16.9c0-8.2-5.3-13.1-14.3-15.2l-10.8-2.4C320.5,27.5,319.5,26,319.5,23.9 M384.5,25.9l12.6-2.6 c-1.9-9.5-10.2-15.1-21.5-15.1c-12.2,0-20.6,6.3-20.6,16.4c0,9.5,6.5,13.4,14,15.1l10.9,2.3c3.7,0.8,4.8,2.3,4.8,4.6 c0,3.2-2.9,5.4-7.7,5.4c-5.2,0-8.9-2.3-10.3-7.7l-13.2,2.6c1.4,10.2,11,15.8,22.8,15.8c11.6,0,21.5-5.8,21.5-16.9 c0-8.2-5.3-13.1-14.3-15.2l-10.8-2.4c-3.3-0.7-4.2-2.3-4.2-4.4c0-3,2.7-5.3,7-5.3C379.5,18.6,383.6,21,384.5,25.9"></path> <path clip-path="url(#SVGID_2_)" fill="#253080" d="M34.2,9.4c-0.5,0-0.9,0.2-1.2,0.5L14.4,30.7L14.2,31 c-4.1,4.6-6.6,10.6-6.6,17.2c0,10.1,5.8,18.8,14.2,23.1L55.2,34l19.6-21.9c0.9-1,0.2-2.7-1.2-2.7H34.2z"></path> <path clip-path="url(#SVGID_2_)" fill="#00ACB8" d="M58.7,87.1c0.5,0,0.9-0.2,1.2-0.5l18.6-20.8l0.2-0.3c4.1-4.6,6.6-10.6,6.6-17.2 c0-10.1-5.8-18.8-14.2-23.1L37.8,62.4L18.1,84.4c-0.9,1-0.2,2.7,1.2,2.7H58.7z"></path> </g> </svg> 