<?xml version="1.0" encoding="UTF-8"?> <svg xmlns="http://www.w3.org/2000/svg" id="Calque_2" viewBox="0 0 51.74 51.74"><defs><style>.cls-1{fill:#fff;}</style></defs><g id="LOGO_GYPASS"><path id="Tracé_2" class="cls-1" d="m17.73,0c-.3,0-.59.13-.79.35L4.53,14.22l-.15.17c-6.34,7.1-5.73,18,1.37,24.35,1.12,1,2.36,1.84,3.69,2.52l22.23-24.84L44.75,1.8c.4-.44.36-1.12-.08-1.52-.2-.18-.45-.28-.72-.28h-26.22Z"></path><path id="Tracé_3" class="cls-1" d="m34.02,51.74c.3,0,.59-.13.79-.35l12.4-13.86.15-.17c6.34-7.1,5.73-18-1.37-24.35-1.12-1-2.36-1.84-3.69-2.52l-22.22,24.84-13.08,14.62c-.4.44-.36,1.12.08,1.52.2.18.45.28.72.28h26.22Z"></path></g></svg> 