<svg width="71" height="256" viewBox="0 0 71 256" fill="none" xmlns="http://www.w3.org/2000/svg">
<mask id="path-1-outside-1_206_979" maskUnits="userSpaceOnUse" x="-1.00001" y="-1" width="73" height="258" fill="black">
<rect fill="white" x="-1.00001" y="-1" width="73" height="258"/>
<path d="M54.6 206.403L69 206.403L69 255.903L2 255.903L2 239.403L54.6 239.403L54.6 206.403ZM54.8 145.012L69 145.012L69 197.212L1.99999 197.212L1.99999 145.312L16.2 145.312L16.2 180.712L28.8 180.712L28.8 148.212L42.2 148.212L42.2 180.712L54.8 180.712L54.8 145.012ZM0.499986 108.412C0.499985 93.8117 7.69999 83.2117 19.9 80.7117L23.2 96.9117C16.9 98.1117 13.8 103.312 13.8 108.612C13.8 114.112 16.8 117.612 20.6 117.612C23.3 117.612 25.3 116.412 26.2 112.212L29.3 98.3117C31.9 86.7117 38.2 79.9117 48.8 79.9117C63.1 79.9117 70.5 92.6117 70.5 107.512C70.5 122.612 63.3 135.012 50.2 136.812L46.9 119.812C53.8 118.112 56.8 113.312 56.8 106.612C56.8 100.412 54 96.7117 49.9 96.7117C46.9 96.7117 45 98.1117 44 102.912L41 116.912C38.8 126.512 33.8 134.912 21.6 134.912C8.59999 134.912 0.499987 124.112 0.499986 108.412ZM45.2 0.32109L45.2 17.4211L62.6 17.4211L62.6 30.5211L45.2 30.5211L45.2 47.6211L32.1 47.6211L32.1 30.5211L14.7 30.5211L14.7 17.4211L32.1 17.4211L32.1 0.321091L45.2 0.32109Z"/>
</mask>
<path d="M54.6 206.403L54.6 205.403L53.6 205.403L53.6 206.403L54.6 206.403ZM69 206.403L70 206.403L70 205.403L69 205.403L69 206.403ZM69 255.903L69 256.903L70 256.903L70 255.903L69 255.903ZM2 255.903L0.999997 255.903L0.999997 256.903L2 256.903L2 255.903ZM2 239.403L2 238.403L0.999996 238.403L0.999996 239.403L2 239.403ZM54.6 239.403L54.6 240.403L55.6 240.403L55.6 239.403L54.6 239.403ZM54.6 207.403L69 207.403L69 205.403L54.6 205.403L54.6 207.403ZM68 206.403L68 255.903L70 255.903L70 206.403L68 206.403ZM69 254.903L2 254.903L2 256.903L69 256.903L69 254.903ZM3 255.903L3 239.403L0.999996 239.403L0.999997 255.903L3 255.903ZM2 240.403L54.6 240.403L54.6 238.403L2 238.403L2 240.403ZM55.6 239.403L55.6 206.403L53.6 206.403L53.6 239.403L55.6 239.403ZM54.8 145.012L54.8 144.012L53.8 144.012L53.8 145.012L54.8 145.012ZM69 145.012L70 145.012L70 144.012L69 144.012L69 145.012ZM69 197.212L69 198.212L70 198.212L70 197.212L69 197.212ZM2 197.212L0.999994 197.212L0.999994 198.212L2 198.212L2 197.212ZM1.99999 145.312L1.99999 144.312L0.999992 144.312L0.999992 145.312L1.99999 145.312ZM16.2 145.312L17.2 145.312L17.2 144.312L16.2 144.312L16.2 145.312ZM16.2 180.712L15.2 180.712L15.2 181.712L16.2 181.712L16.2 180.712ZM28.8 180.712L28.8 181.712L29.8 181.712L29.8 180.712L28.8 180.712ZM28.8 148.212L28.8 147.212L27.8 147.212L27.8 148.212L28.8 148.212ZM42.2 148.212L43.2 148.212L43.2 147.212L42.2 147.212L42.2 148.212ZM42.2 180.712L41.2 180.712L41.2 181.712L42.2 181.712L42.2 180.712ZM54.8 180.712L54.8 181.712L55.8 181.712L55.8 180.712L54.8 180.712ZM54.8 146.012L69 146.012L69 144.012L54.8 144.012L54.8 146.012ZM68 145.012L68 197.212L70 197.212L70 145.012L68 145.012ZM69 196.212L2 196.212L2 198.212L69 198.212L69 196.212ZM3 197.212L2.99999 145.312L0.999992 145.312L0.999994 197.212L3 197.212ZM1.99999 146.312L16.2 146.312L16.2 144.312L1.99999 144.312L1.99999 146.312ZM15.2 145.312L15.2 180.712L17.2 180.712L17.2 145.312L15.2 145.312ZM16.2 181.712L28.8 181.712L28.8 179.712L16.2 179.712L16.2 181.712ZM29.8 180.712L29.8 148.212L27.8 148.212L27.8 180.712L29.8 180.712ZM28.8 149.212L42.2 149.212L42.2 147.212L28.8 147.212L28.8 149.212ZM41.2 148.212L41.2 180.712L43.2 180.712L43.2 148.212L41.2 148.212ZM42.2 181.712L54.8 181.712L54.8 179.712L42.2 179.712L42.2 181.712ZM55.8 180.712L55.8 145.012L53.8 145.012L53.8 180.712L55.8 180.712ZM19.9 80.7117L20.8799 80.5121L20.68 79.5311L19.6992 79.7321L19.9 80.7117ZM23.2 96.9117L23.3871 97.8941L24.382 97.7045L24.1799 96.7121L23.2 96.9117ZM26.2 112.212L25.2239 111.994L25.2222 112.002L26.2 112.212ZM29.3 98.3117L28.3242 98.093L28.324 98.094L29.3 98.3117ZM50.2 136.812L49.2183 137.002L49.3986 137.931L50.3361 137.802L50.2 136.812ZM46.9 119.812L46.6608 118.841L45.737 119.068L45.9183 120.002L46.9 119.812ZM44 102.912L44.9778 103.121L44.979 103.116L44 102.912ZM41 116.912L41.9747 117.135L41.9763 117.128L41.9778 117.121L41 116.912ZM1.49998 108.412C1.49998 94.1474 8.48999 84.0706 20.1007 81.6914L19.6992 79.7321C6.90999 82.3528 -0.500014 93.476 -0.500014 108.412L1.49998 108.412ZM18.9201 80.9113L22.2201 97.1113L24.1799 96.7121L20.8799 80.5121L18.9201 80.9113ZM23.0129 95.9294C16.1518 97.2362 12.8 102.929 12.8 108.612L14.8 108.612C14.8 103.695 17.6482 98.9872 23.3871 97.8941L23.0129 95.9294ZM12.8 108.612C12.8 114.424 16.0347 118.612 20.6 118.612L20.6 116.612C17.5653 116.612 14.8 113.8 14.8 108.612L12.8 108.612ZM20.6 118.612C22.0984 118.612 23.5393 118.276 24.7307 117.242C25.9061 116.221 26.7032 114.636 27.1778 112.421L25.2222 112.002C24.7968 113.987 24.1439 115.102 23.4193 115.732C22.7106 116.347 21.8016 116.612 20.6 116.612L20.6 118.612ZM27.176 112.429L30.276 98.5294L28.324 98.094L25.224 111.994L27.176 112.429ZM30.2758 98.5304C31.5498 92.8464 33.7074 88.4477 36.7487 85.4771C39.7682 82.5278 43.7338 80.9117 48.8 80.9117L48.8 78.9117C43.2662 78.9117 38.7817 80.6956 35.3512 84.0463C31.9426 87.3757 29.6502 92.177 28.3242 98.093L30.2758 98.5304ZM48.8 80.9117C55.6115 80.9117 60.7418 83.9181 64.2018 88.7096C67.6851 93.5336 69.5 100.212 69.5 107.512L71.5 107.512C71.5 99.9118 69.6149 92.7898 65.8232 87.5388C62.0081 82.2554 56.2885 78.9117 48.8 78.9117L48.8 80.9117ZM69.5 107.512C69.5 122.367 62.4525 134.119 50.0639 135.821L50.3361 137.802C64.1474 135.905 71.5 122.857 71.5 107.512L69.5 107.512ZM51.1817 136.621L47.8817 119.621L45.9183 120.002L49.2183 137.002L51.1817 136.621ZM47.1392 120.783C50.7774 119.886 53.4751 118.146 55.2503 115.669C57.0174 113.203 57.8 110.106 57.8 106.612L55.8 106.612C55.8 109.817 55.0825 112.47 53.6247 114.504C52.1749 116.527 49.9226 118.037 46.6608 118.841L47.1392 120.783ZM57.8 106.612C57.8 103.376 57.0711 100.676 55.7016 98.756C54.311 96.8063 52.2893 95.7117 49.9 95.7117L49.9 97.7117C51.6107 97.7117 53.039 98.4671 54.0734 99.9174C55.1289 101.397 55.8 103.648 55.8 106.612L57.8 106.612ZM49.9 95.7117C48.2368 95.7117 46.7237 96.1053 45.5021 97.2955C44.318 98.4492 43.5373 100.23 43.021 102.708L44.979 103.116C45.4627 100.794 46.132 99.4742 46.8979 98.7279C47.6263 98.0182 48.5632 97.7117 49.9 97.7117L49.9 95.7117ZM43.0222 102.702L40.0222 116.702L41.9778 117.121L44.9778 103.121L43.0222 102.702ZM40.0253 116.688C38.9436 121.408 37.1972 125.715 34.3156 128.833C31.4672 131.915 27.4397 133.912 21.6 133.912L21.6 135.912C27.9603 135.912 32.5328 133.709 35.7844 130.19C39.0028 126.708 40.8563 122.015 41.9747 117.135L40.0253 116.688ZM21.6 133.912C15.4062 133.912 10.4221 131.352 6.9624 126.933C3.48417 122.49 1.49998 116.101 1.49998 108.412L-0.500014 108.412C-0.500013 116.423 1.5658 123.284 5.38757 128.166C9.22787 133.071 14.7937 135.912 21.6 135.912L21.6 133.912ZM45.2 0.321103L46.2 0.321103L46.2 -0.678897L45.2 -0.678897L45.2 0.321103ZM45.2 17.4211L44.2 17.4211L44.2 18.4211L45.2 18.4211L45.2 17.4211ZM62.6 17.4211L63.6 17.4211L63.6 16.4211L62.6 16.4211L62.6 17.4211ZM62.6 30.5211L62.6 31.5211L63.6 31.5211L63.6 30.5211L62.6 30.5211ZM45.2 30.5211L45.2 29.5211L44.2 29.5211L44.2 30.5211L45.2 30.5211ZM45.2 47.6211L45.2 48.6211L46.2 48.6211L46.2 47.6211L45.2 47.6211ZM32.1 47.6211L31.1 47.6211L31.1 48.6211L32.1 48.6211L32.1 47.6211ZM32.1 30.5211L33.1 30.5211L33.1 29.5211L32.1 29.5211L32.1 30.5211ZM14.7 30.5211L13.7 30.5211L13.7 31.5211L14.7 31.5211L14.7 30.5211ZM14.7 17.4211L14.7 16.4211L13.7 16.4211L13.7 17.4211L14.7 17.4211ZM32.1 17.4211L32.1 18.4211L33.1 18.4211L33.1 17.4211L32.1 17.4211ZM32.1 0.321103L32.1 -0.678897L31.1 -0.678897L31.1 0.321103L32.1 0.321103ZM44.2 0.321103L44.2 17.4211L46.2 17.4211L46.2 0.321103L44.2 0.321103ZM45.2 18.4211L62.6 18.4211L62.6 16.4211L45.2 16.4211L45.2 18.4211ZM61.6 17.4211L61.6 30.5211L63.6 30.5211L63.6 17.4211L61.6 17.4211ZM62.6 29.5211L45.2 29.5211L45.2 31.5211L62.6 31.5211L62.6 29.5211ZM44.2 30.5211L44.2 47.6211L46.2 47.6211L46.2 30.5211L44.2 30.5211ZM45.2 46.6211L32.1 46.6211L32.1 48.6211L45.2 48.6211L45.2 46.6211ZM33.1 47.6211L33.1 30.5211L31.1 30.5211L31.1 47.6211L33.1 47.6211ZM32.1 29.5211L14.7 29.5211L14.7 31.5211L32.1 31.5211L32.1 29.5211ZM15.7 30.5211L15.7 17.4211L13.7 17.4211L13.7 30.5211L15.7 30.5211ZM14.7 18.4211L32.1 18.4211L32.1 16.4211L14.7 16.4211L14.7 18.4211ZM33.1 17.4211L33.1 0.321103L31.1 0.321103L31.1 17.4211L33.1 17.4211ZM32.1 1.3211L45.2 1.3211L45.2 -0.678897L32.1 -0.678897L32.1 1.3211Z" fill="#253080" mask="url(#path-1-outside-1_206_979)"/>
</svg>
