<svg width="55" height="55" viewBox="0 0 55 55" fill="none" xmlns="http://www.w3.org/2000/svg">
<g id="Frame 1" clip-path="url(#clip0_1_83)">
<rect width="55" height="55" fill="white"/>
<g id="COEUR/INSPIRATION">
<circle id="Ellipse 6" cx="27.5" cy="27.5" r="27.5" fill="white"/>
<path id="Vector" d="M20.6761 17C19.1579 16.9999 17.6738 17.4702 16.4115 18.3515C15.1492 19.2327 14.1653 20.4853 13.5843 21.9509C13.0033 23.4164 12.8513 25.0291 13.1475 26.5849C13.4437 28.1407 14.1748 29.5698 15.2484 30.6914L26.5907 42.5427C26.679 42.6353 26.784 42.7087 26.8995 42.7588C27.015 42.8088 27.1388 42.8346 27.2639 42.8346C27.389 42.8346 27.5128 42.8088 27.6284 42.7588C27.7439 42.7087 27.8488 42.6353 27.9372 42.5427L39.2795 30.6894C40.68 29.1773 41.4557 27.1506 41.4392 25.0463C41.4227 22.9421 40.6154 20.9289 39.1913 19.4409C37.7672 17.953 35.8405 17.1094 33.8267 17.0922C31.8128 17.0749 29.8731 17.8854 28.4259 19.3488L27.2639 20.561L26.1038 19.3488C25.3908 18.6038 24.5443 18.013 23.6127 17.61C22.681 17.2069 21.6844 16.9997 20.6761 17Z" fill="#EC6615"/>
</g>
</g>
<defs>
<clipPath id="clip0_1_83">
<rect width="55" height="55" fill="white"/>
</clipPath>
</defs>
</svg>
