<svg width="31" height="28" viewBox="0 0 31 28" fill="none" xmlns="http://www.w3.org/2000/svg">
<path d="M8.71377 1.48916L8.71405 1.48916C9.6583 1.48887 10.5921 1.67937 11.4659 2.05053C12.3397 2.42163 13.1349 2.96623 13.8055 3.65418C13.8055 3.65419 13.8055 3.6542 13.8055 3.65421L15.0086 4.88838L15.5452 5.43889L16.0823 4.88882L17.2831 3.65889C18.6435 2.31045 20.4615 1.56716 22.3451 1.58299C24.2306 1.59884 26.0385 2.37413 27.3777 3.748C28.7175 5.1225 29.4803 6.98605 29.4959 8.93777C29.5115 10.8875 28.7801 12.7619 27.4648 14.1585L15.7067 26.2228L15.7061 26.2235C15.6832 26.247 15.6571 26.2646 15.6298 26.2762C15.6025 26.2878 15.574 26.2935 15.5456 26.2935C15.5173 26.2935 15.4887 26.2878 15.4614 26.2762C15.4341 26.2646 15.408 26.247 15.3852 26.2235L15.3845 26.2228L3.62212 14.156L3.6221 14.156C2.61219 13.12 1.92235 11.7978 1.64268 10.3555C1.363 8.9132 1.50668 7.41838 2.05481 6.06086C2.60288 4.70351 3.52975 3.54645 4.7153 2.73385C5.9006 1.92142 7.29205 1.48908 8.71377 1.48916ZM3.08506 14.6795L14.8475 26.7463L14.3426 3.13067C13.6031 2.37217 12.7253 1.77056 11.7591 1.36022C10.793 0.949871 9.75949 0.738835 8.71382 0.739162C7.13942 0.739069 5.60036 1.21794 4.29127 2.11522C2.98218 3.0125 1.96187 4.28787 1.35936 5.78006C0.756855 7.27225 0.599221 8.91422 0.906395 10.4983C1.21357 12.0824 1.97175 13.5375 3.08506 14.6795Z" stroke="#EC6615" stroke-width="1.5"/>
</svg>
