<svg width="55" height="55" viewBox="0 0 55 55" fill="none" xmlns="http://www.w3.org/2000/svg">
<g clip-path="url(#clip0_1_84)">
<rect width="55" height="55" fill="white"/>
<circle cx="27.5" cy="27.5" r="27.5" fill="white"/>
<path d="M20.6761 17.75L20.6763 17.75C21.5813 17.7497 22.4765 17.9356 23.3149 18.2983C24.1532 18.6609 24.9171 19.1935 25.562 19.8674C25.562 19.8674 25.562 19.8674 25.562 19.8674L26.7221 21.0795L27.2635 21.6452L27.8053 21.08L28.9632 19.8721C30.271 18.5518 32.0157 17.8267 33.8202 17.8422C35.6266 17.8576 37.3618 18.614 38.6495 19.9595C39.9382 21.3061 40.6742 23.1345 40.6892 25.0522C40.7042 26.9678 39.9985 28.8071 38.7333 30.1754L27.3953 42.0242L27.3947 42.0248C27.3744 42.0461 27.3521 42.0611 27.33 42.0707C27.308 42.0802 27.2857 42.0846 27.2639 42.0846C27.2422 42.0846 27.2198 42.0802 27.1978 42.0707C27.1757 42.0611 27.1534 42.0461 27.1332 42.0248L27.1325 42.0242L15.7902 30.1728L15.7902 30.1728C14.8189 29.158 14.154 27.8612 13.8843 26.4446C13.6146 25.0279 13.7532 23.5599 14.2815 22.2273C14.8097 20.8949 15.7021 19.7614 16.8408 18.9665C17.9791 18.1718 19.3138 17.7499 20.6761 17.75Z" stroke="#EC6615" stroke-width="1.5"/>
</g>
<defs>
<clipPath id="clip0_1_84">
<rect width="55" height="55" fill="white"/>
</clipPath>
</defs>
</svg>
